<svg id="visual" viewBox="0 0 900 600" width="900" height="600" xmlns="http://www.w3.org/2000/svg" xmlns:xlink="http://www.w3.org/1999/xlink" version="1.1"><rect x="0" y="0" width="900" height="600" fill="#ececec"></rect><defs><linearGradient id="grad1_0" x1="33.3%" y1="100%" x2="100%" y2="0%"><stop offset="20%" stop-color="#ececec" stop-opacity="1"></stop><stop offset="80%" stop-color="#ececec" stop-opacity="1"></stop></linearGradient></defs><defs><linearGradient id="grad2_0" x1="0%" y1="100%" x2="66.7%" y2="0%"><stop offset="20%" stop-color="#ececec" stop-opacity="1"></stop><stop offset="80%" stop-color="#ececec" stop-opacity="1"></stop></linearGradient></defs><g transform="translate(900, 600)"><path d="M-486.7 0C-436.2 -43.2 -385.6 -86.5 -371.4 -153.8C-357.2 -221.2 -379.3 -312.6 -344.2 -344.2C-309 -375.8 -216.5 -347.5 -149.6 -361.2C-82.7 -375 -41.4 -430.9 0 -486.7L0 0Z" fill="#639aff"></path></g><g transform="translate(0, 0)"><path d="M486.7 0C480 62.6 473.3 125.3 449.7 186.3C426.1 247.2 385.7 306.6 331.6 331.6C277.6 356.7 209.9 347.6 152.3 367.7C94.8 387.9 47.4 437.3 0 486.7L0 0Z" fill="#639aff"></path></g></svg>